<svg xmlns="http://www.w3.org/2000/svg" viewBox="0 0 180 280" role="img" aria-labelledby="rose-title">
  <title id="rose-title">Una rosa única dibujada con luz</title>
  <g fill="none" stroke-linecap="round" stroke-linejoin="round">
    <path d="M92 264C87 226 94 192 90 157" stroke="#bda66f" stroke-width="4"/>
    <path d="M90 216C72 198 55 204 50 218c17 5 29 2 40-2zM92 194c16-17 32-12 38 1-15 6-27 6-38-1z" fill="#6b795e" stroke="#bda66f" stroke-width="2"/>
    <path d="M90 160c-24-9-42-29-39-51 2-17 15-27 28-22-8-19 7-38 25-34 18 4 23 23 15 39 18-4 30 11 28 28-3 23-28 38-57 40z" fill="#9c5f68" stroke="#e4c98c" stroke-width="3"/>
    <path d="M80 88c7 9 10 20 10 35 2-17 11-29 28-35M90 123c-14-7-23-18-26-31M91 127c13-8 27-13 41-12M77 72c10 1 19 7 27 18M118 63c-2 13-8 23-18 31" stroke="#e2b6ae" stroke-width="2"/>
  </g>
</svg>
